<?xml version="1.0" encoding="UTF-8"?>
<!DOCTYPE svg PUBLIC "-//W3C//DTD SVG 1.1//EN" "http://www.w3.org/Graphics/SVG/1.1/DTD/svg11.dtd">
<svg xmlns="http://www.w3.org/2000/svg" version="1.1" width="50px" height="50px" style="shape-rendering:geometricPrecision; text-rendering:geometricPrecision; image-rendering:optimizeQuality; fill-rule:evenodd; clip-rule:evenodd" xmlns:xlink="http://www.w3.org/1999/xlink">
<g><path style="opacity:0.969" fill="#000000" d="M 9.5,-0.5 C 11.5,-0.5 13.5,-0.5 15.5,-0.5C 15.5,0.833333 15.5,2.16667 15.5,3.5C 21.5,3.5 27.5,3.5 33.5,3.5C 33.5,2.16667 33.5,0.833333 33.5,-0.5C 35.5,-0.5 37.5,-0.5 39.5,-0.5C 39.5,0.833333 39.5,2.16667 39.5,3.5C 42.1667,3.5 44.8333,3.5 47.5,3.5C 47.8308,11.1955 47.4975,18.8622 46.5,26.5C 45.5091,22.5546 45.1758,18.5546 45.5,14.5C 31.5,14.5 17.5,14.5 3.5,14.5C 3.5,24.8333 3.5,35.1667 3.5,45.5C 11.1955,45.1692 18.8622,45.5025 26.5,46.5C 18.1932,47.4979 9.85989,47.8312 1.5,47.5C 1.5,32.8333 1.5,18.1667 1.5,3.5C 4.16667,3.5 6.83333,3.5 9.5,3.5C 9.5,2.16667 9.5,0.833333 9.5,-0.5 Z M 11.5,1.5 C 12.6935,1.97041 13.3601,2.97041 13.5,4.5C 13.1667,5.5 12.8333,6.5 12.5,7.5C 11.5344,5.60395 11.2011,3.60395 11.5,1.5 Z M 35.5,1.5 C 36.6935,1.97041 37.3601,2.97041 37.5,4.5C 37.1667,5.5 36.8333,6.5 36.5,7.5C 35.5344,5.60395 35.2011,3.60395 35.5,1.5 Z M 3.5,5.5 C 5.5,5.5 7.5,5.5 9.5,5.5C 9.5,6.83333 9.5,8.16667 9.5,9.5C 11.5,9.5 13.5,9.5 15.5,9.5C 15.5,8.16667 15.5,6.83333 15.5,5.5C 21.5,5.5 27.5,5.5 33.5,5.5C 33.5,6.83333 33.5,8.16667 33.5,9.5C 35.5,9.5 37.5,9.5 39.5,9.5C 39.5,8.16667 39.5,6.83333 39.5,5.5C 41.5,5.5 43.5,5.5 45.5,5.5C 45.5,7.83333 45.5,10.1667 45.5,12.5C 31.5,12.5 17.5,12.5 3.5,12.5C 3.5,10.1667 3.5,7.83333 3.5,5.5 Z"/></g>
<g><path style="opacity:0.662" fill="#000000" d="M 49.5,28.5 C 49.5,30.5 49.5,32.5 49.5,34.5C 48.1667,35.1667 47.1667,36.1667 46.5,37.5C 45.8333,37.5 45.5,37.8333 45.5,38.5C 42.8333,40.5 40.5,42.8333 38.5,45.5C 37.8333,45.5 37.5,45.8333 37.5,46.5C 35.8869,47.6923 34.2202,48.6923 32.5,49.5C 30.8333,49.5 29.1667,49.5 27.5,49.5C 27.4207,46.7294 27.9207,44.0627 29,41.5C 33.5,37 38,32.5 42.5,28C 44.9291,27.2967 47.2625,27.4634 49.5,28.5 Z M 42.5,32.5 C 44.0847,33.0024 44.5847,34.0024 44,35.5C 41,38.5 38,41.5 35,44.5C 33.7705,43.7248 33.4372,42.7248 34,41.5C 37.0379,38.6306 39.8712,35.6306 42.5,32.5 Z"/></g>
<g><path style="opacity:0.844" fill="#000000" d="M 46.5,37.5 C 47.4794,40.6248 47.8128,43.9581 47.5,47.5C 43.9581,47.8128 40.6248,47.4794 37.5,46.5C 38.1667,46.5 38.5,46.1667 38.5,45.5C 40.8333,45.5 43.1667,45.5 45.5,45.5C 45.5,43.1667 45.5,40.8333 45.5,38.5C 46.1667,38.5 46.5,38.1667 46.5,37.5 Z"/></g>
</svg>
