<?xml version="1.0" standalone="no"?>
<!DOCTYPE svg PUBLIC "-//W3C//DTD SVG 20010904//EN"
 "http://www.w3.org/TR/2001/REC-SVG-20010904/DTD/svg10.dtd">
<svg version="1.0" xmlns="http://www.w3.org/2000/svg"
 width="29.000000pt" height="35.000000pt" viewBox="0 0 29.000000 35.000000"
 preserveAspectRatio="xMidYMid meet">

<g transform="translate(0.000000,35.000000) scale(0.100000,-0.100000)"
fill="#000000" stroke="none">
<path d="M46 308 c14 -47 35 -93 51 -110 15 -17 15 -19 0 -36 -16 -17 -37 -63
-51 -109 -7 -23 -7 -23 100 -23 84 0 104 3 96 13 -5 6 -13 27 -17 45 -4 18
-18 46 -32 62 l-25 30 25 30 c14 16 28 44 32 62 4 18 12 39 17 46 8 9 -12 12
-96 12 -107 0 -107 0 -100 -22z m174 -7 c0 -5 -4 -21 -10 -35 -9 -24 -14 -26
-70 -26 -33 0 -60 1 -60 3 0 1 -4 17 -9 35 l-10 32 80 0 c43 0 79 -4 79 -9z
m-70 -143 c0 24 30 -2 50 -42 23 -48 25 -66 8 -66 -16 0 -58 41 -58 57 0 7
-15 -4 -33 -24 -43 -46 -60 -42 -42 10 18 53 44 80 62 66 9 -8 13 -8 13 -1z"/>
</g>
</svg>
