<?xml version="1.0" encoding="UTF-8"?>
<!DOCTYPE svg PUBLIC "-//W3C//DTD SVG 1.1//EN" "http://www.w3.org/Graphics/SVG/1.1/DTD/svg11.dtd">
<svg xmlns="http://www.w3.org/2000/svg" version="1.1" width="64px" height="64px" style="shape-rendering:geometricPrecision; text-rendering:geometricPrecision; image-rendering:optimizeQuality; fill-rule:evenodd; clip-rule:evenodd" xmlns:xlink="http://www.w3.org/1999/xlink">
<g><path style="opacity:0.78" fill="#000000" d="M 25.5,5.5 C 40.6525,3.8185 47.1525,10.4852 45,25.5C 40.8406,32.6699 34.6739,35.1699 26.5,33C 17.9378,29.152 15.1045,22.652 18,13.5C 20.0282,10.3078 22.5282,7.64111 25.5,5.5 Z M 27.5,10.5 C 37.6591,9.15811 41.8257,13.4914 40,23.5C 37.1034,28.1549 32.9367,29.6549 27.5,28C 22.8451,25.1034 21.3451,20.9367 23,15.5C 24.025,13.313 25.525,11.6464 27.5,10.5 Z"/></g>
<g><path style="opacity:0.772" fill="#000000" d="M 16.5,30.5 C 18.4841,30.484 19.4841,31.484 19.5,33.5C 17.838,36.0153 16.338,38.682 15,41.5C 14.0218,44.6693 14.5218,47.5027 16.5,50C 26.5,53.3333 36.5,53.3333 46.5,50C 47.9436,48.874 48.6102,47.374 48.5,45.5C 47.9107,40.9956 46.244,36.9956 43.5,33.5C 43.4528,31.9996 44.1195,30.9996 45.5,30.5C 52.6389,35.7444 55.1389,42.7444 53,51.5C 46.6885,56.3709 39.5219,58.3709 31.5,57.5C 23.4781,58.3709 16.3115,56.3709 10,51.5C 8.08076,43.0979 10.2474,36.0979 16.5,30.5 Z"/></g>
</svg>
